<svg display="none" width="0" height="0" version="1.1" xmlns="http://www.w3.org/2000/svg" xmlns:xlink="http://www.w3.org/1999/xlink"><defs><symbol id="caret-right-fill"><svg xmlns="http://www.w3.org/2000/svg" width="16" height="16" fill="currentColor" class="bi bi-caret-right-fill" viewBox="0 0 16 16"><path d="m12.14 8.753-5.482 4.796c-.646.566-1.658.106-1.658-.753V3.204a1 1 0 0 1 1.659-.753l5.48 4.796a1 1 0 0 1 0 1.506z"/></svg></symbol><symbol id="envelope-at-fill"><svg xmlns="http://www.w3.org/2000/svg" width="16" height="16" fill="currentColor" class="bi bi-envelope-at-fill" viewBox="0 0 16 16"><path d="M2 2A2 2 0 0 0 .05 3.555L8 8.414l7.95-4.859A2 2 0 0 0 14 2zm-2 9.8V4.698l5.803 3.546zm6.761-2.97-6.57 4.026A2 2 0 0 0 2 14h6.256A4.5 4.5 0 0 1 8 12.5a4.49 4.49 0 0 1 1.606-3.446l-.367-.225L8 9.586zM16 9.671V4.697l-5.803 3.546.338.208A4.5 4.5 0 0 1 12.5 8c1.414 0 2.675.652 3.5 1.671"/><path d="M15.834 12.244c0 1.168-.577 2.025-1.587 2.025-.503 0-1.002-.228-1.12-.648h-.043c-.118.416-.543.643-1.015.643-.77 0-1.259-.542-1.259-1.434v-.529c0-.844.481-1.4 1.26-1.4.585 0 .87.333.953.63h.03v-.568h.905v2.19c0 .272.18.42.411.42.315 0 .639-.415.639-1.39v-.118c0-1.277-.95-2.326-2.484-2.326h-.04c-1.582 0-2.64 1.067-2.64 2.724v.157c0 1.867 1.237 2.654 2.57 2.654h.045c.507 0 .935-.07 1.18-.18v.731c-.219.1-.643.175-1.237.175h-.044C10.438 16 9 14.82 9 12.646v-.214C9 10.36 10.421 9 12.485 9h.035c2.12 0 3.314 1.43 3.314 3.034zm-4.04.21v.227c0 .586.227.8.581.8.31 0 .564-.17.564-.743v-.367c0-.516-.275-.708-.572-.708-.346 0-.573.245-.573.791"/></svg></symbol><symbol id="caret-left-fill"><svg xmlns="http://www.w3.org/2000/svg" width="16" height="16" fill="currentColor" class="bi bi-caret-left-fill" viewBox="0 0 16 16"><path d="m3.86 8.753 5.482 4.796c.646.566 1.658.106 1.658-.753V3.204a1 1 0 0 0-1.659-.753l-5.48 4.796a1 1 0 0 0 0 1.506z"/></svg></symbol><symbol id="film"><svg xmlns="http://www.w3.org/2000/svg" width="16" height="16" fill="currentColor" class="bi bi-film" viewBox="0 0 16 16"><path d="M0 1a1 1 0 0 1 1-1h14a1 1 0 0 1 1 1v14a1 1 0 0 1-1 1H1a1 1 0 0 1-1-1zm4 0v6h8V1zm8 8H4v6h8zM1 1v2h2V1zm2 3H1v2h2zM1 7v2h2V7zm2 3H1v2h2zm-2 3v2h2v-2zM15 1h-2v2h2zm-2 3v2h2V4zm2 3h-2v2h2zm-2 3v2h2v-2zm2 3h-2v2h2z"/></svg></symbol><symbol id="facebook"><svg xmlns="http://www.w3.org/2000/svg" width="16" height="16" fill="currentColor" class="bi bi-facebook" viewBox="0 0 16 16"><path d="M16 8.049c0-4.446-3.582-8.05-8-8.05C3.58 0-.002 3.603-.002 8.05c0 4.017 2.926 7.347 6.75 7.951v-5.625h-2.03V8.05H6.75V6.275c0-2.017 1.195-3.131 3.022-3.131.876 0 1.791.157 1.791.157v1.98h-1.009c-.993 0-1.303.621-1.303 1.258v1.51h2.218l-.354 2.326H9.25V16c3.824-.604 6.75-3.934 6.75-7.951"/></svg></symbol><symbol id="gear-fill"><svg xmlns="http://www.w3.org/2000/svg" width="16" height="16" fill="currentColor" class="bi bi-gear-fill" viewBox="0 0 16 16"><path d="M9.405 1.05c-.413-1.4-2.397-1.4-2.81 0l-.1.34a1.464 1.464 0 0 1-2.105.872l-.31-.17c-1.283-.698-2.686.705-1.987 1.987l.169.311c.446.82.023 1.841-.872 2.105l-.34.1c-1.4.413-1.4 2.397 0 2.81l.34.1a1.464 1.464 0 0 1 .872 2.105l-.17.31c-.698 1.283.705 2.686 1.987 1.987l.311-.169a1.464 1.464 0 0 1 2.105.872l.1.34c.413 1.4 2.397 1.4 2.81 0l.1-.34a1.464 1.464 0 0 1 2.105-.872l.31.17c1.283.698 2.686-.705 1.987-1.987l-.169-.311a1.464 1.464 0 0 1 .872-2.105l.34-.1c1.4-.413 1.4-2.397 0-2.81l-.34-.1a1.464 1.464 0 0 1-.872-2.105l.17-.31c.698-1.283-.705-2.686-1.987-1.987l-.311.169a1.464 1.464 0 0 1-2.105-.872zM8 10.93a2.929 2.929 0 1 1 0-5.86 2.929 2.929 0 0 1 0 5.858z"/></svg></symbol><symbol id="info-circle-fill"><svg xmlns="http://www.w3.org/2000/svg" width="16" height="16" fill="currentColor" class="bi bi-info-circle-fill" viewBox="0 0 16 16"><path d="M8 16A8 8 0 1 0 8 0a8 8 0 0 0 0 16m.93-9.412-1 4.705c-.07.34.029.533.304.533.194 0 .487-.07.686-.246l-.088.416c-.287.346-.92.598-1.465.598-.703 0-1.002-.422-.808-1.319l.738-3.468c.064-.293.006-.399-.287-.47l-.451-.081.082-.381 2.29-.287zM8 5.5a1 1 0 1 1 0-2 1 1 0 0 1 0 2"/></svg></symbol><symbol id="house-fill"><svg xmlns="http://www.w3.org/2000/svg" width="16" height="16" fill="currentColor" class="bi bi-house-fill" viewBox="0 0 16 16"><path d="M8.707 1.5a1 1 0 0 0-1.414 0L.646 8.146a.5.5 0 0 0 .708.708L8 2.207l6.646 6.647a.5.5 0 0 0 .708-.708L13 5.793V2.5a.5.5 0 0 0-.5-.5h-1a.5.5 0 0 0-.5.5v1.293z"/><path d="m8 3.293 6 6V13.5a1.5 1.5 0 0 1-1.5 1.5h-9A1.5 1.5 0 0 1 2 13.5V9.293z"/></svg></symbol><symbol id="linkedin"><svg xmlns="http://www.w3.org/2000/svg" width="16" height="16" fill="currentColor" class="bi bi-linkedin" viewBox="0 0 16 16"><path d="M0 1.146C0 .513.526 0 1.175 0h13.65C15.474 0 16 .513 16 1.146v13.708c0 .633-.526 1.146-1.175 1.146H1.175C.526 16 0 15.487 0 14.854zm4.943 12.248V6.169H2.542v7.225zm-1.2-8.212c.837 0 1.358-.554 1.358-1.248-.015-.709-.52-1.248-1.342-1.248S2.4 3.226 2.4 3.934c0 .694.521 1.248 1.327 1.248zm4.908 8.212V9.359c0-.216.016-.432.08-.586.173-.431.568-.878 1.232-.878.869 0 1.216.662 1.216 1.634v3.865h2.401V9.25c0-2.22-1.184-3.252-2.764-3.252-1.274 0-1.845.7-2.165 1.193v.025h-.016l.016-.025V6.169h-2.4c.03.678 0 7.225 0 7.225z"/></svg></symbol><symbol id="person-vcard-fill"><svg xmlns="http://www.w3.org/2000/svg" width="16" height="16" fill="currentColor" class="bi bi-person-vcard-fill" viewBox="0 0 16 16"><path d="M0 4a2 2 0 0 1 2-2h12a2 2 0 0 1 2 2v8a2 2 0 0 1-2 2H2a2 2 0 0 1-2-2zm9 1.5a.5.5 0 0 0 .5.5h4a.5.5 0 0 0 0-1h-4a.5.5 0 0 0-.5.5M9 8a.5.5 0 0 0 .5.5h4a.5.5 0 0 0 0-1h-4A.5.5 0 0 0 9 8m1 2.5a.5.5 0 0 0 .5.5h3a.5.5 0 0 0 0-1h-3a.5.5 0 0 0-.5.5m-1 2C9 10.567 7.21 9 5 9c-2.086 0-3.8 1.398-3.984 3.181A1 1 0 0 0 2 13h6.96q.04-.245.04-.5M7 6a2 2 0 1 0-4 0 2 2 0 0 0 4 0"/></svg></symbol><symbol id="steam"><svg xmlns="http://www.w3.org/2000/svg" width="16" height="16" fill="currentColor" class="bi bi-steam" viewBox="0 0 16 16"><path d="M.329 10.333A8.01 8.01 0 0 0 7.99 16C12.414 16 16 12.418 16 8s-3.586-8-8.009-8A8.006 8.006 0 0 0 0 7.468l.003.006 4.304 1.769A2.2 2.2 0 0 1 5.62 8.88l1.96-2.844-.001-.04a3.046 3.046 0 0 1 3.042-3.043 3.046 3.046 0 0 1 3.042 3.043 3.047 3.047 0 0 1-3.111 3.044l-2.804 2a2.223 2.223 0 0 1-3.075 2.11 2.22 2.22 0 0 1-1.312-1.568L.33 10.333Z"/><path d="M4.868 12.683a1.715 1.715 0 0 0 1.318-3.165 1.7 1.7 0 0 0-1.263-.02l1.023.424a1.261 1.261 0 1 1-.97 2.33l-.99-.41a1.7 1.7 0 0 0 .882.84Zm3.726-6.687a2.03 2.03 0 0 0 2.027 2.029 2.03 2.03 0 0 0 2.027-2.029 2.03 2.03 0 0 0-2.027-2.027 2.03 2.03 0 0 0-2.027 2.027m2.03-1.527a1.524 1.524 0 1 1-.002 3.048 1.524 1.524 0 0 1 .002-3.048"/></svg></symbol><symbol id="person-fill"><svg xmlns="http://www.w3.org/2000/svg" width="16" height="16" fill="currentColor" class="bi bi-person-fill" viewBox="0 0 16 16"><path d="M3 14s-1 0-1-1 1-4 6-4 6 3 6 4-1 1-1 1zm5-6a3 3 0 1 0 0-6 3 3 0 0 0 0 6"/></svg></symbol><symbol id="x"><svg xmlns="http://www.w3.org/2000/svg" width="16" height="16" fill="currentColor" class="bi bi-x" viewBox="0 0 16 16"><path d="M4.646 4.646a.5.5 0 0 1 .708 0L8 7.293l2.646-2.647a.5.5 0 0 1 .708.708L8.707 8l2.647 2.646a.5.5 0 0 1-.708.708L8 8.707l-2.646 2.647a.5.5 0 0 1-.708-.708L7.293 8 4.646 5.354a.5.5 0 0 1 0-.708"/></svg></symbol><symbol id="plus"><svg xmlns="http://www.w3.org/2000/svg" width="16" height="16" fill="currentColor" class="bi bi-plus" viewBox="0 0 16 16"><path d="M8 4a.5.5 0 0 1 .5.5v3h3a.5.5 0 0 1 0 1h-3v3a.5.5 0 0 1-1 0v-3h-3a.5.5 0 0 1 0-1h3v-3A.5.5 0 0 1 8 4"/></svg></symbol><symbol id="telephone-fill"><svg xmlns="http://www.w3.org/2000/svg" width="16" height="16" fill="currentColor" class="bi bi-telephone-fill" viewBox="0 0 16 16"><path fill-rule="evenodd" d="M1.885.511a1.745 1.745 0 0 1 2.61.163L6.29 2.98c.329.423.445.974.315 1.494l-.547 2.19a.68.68 0 0 0 .178.643l2.457 2.457a.68.68 0 0 0 .644.178l2.189-.547a1.75 1.75 0 0 1 1.494.315l2.306 1.794c.829.645.905 1.87.163 2.611l-1.034 1.034c-.74.74-1.846 1.065-2.877.702a18.6 18.6 0 0 1-7.01-4.42 18.6 18.6 0 0 1-4.42-7.009c-.362-1.03-.037-2.137.703-2.877z"/></svg></symbol><symbol id="trash-fill"><svg xmlns="http://www.w3.org/2000/svg" width="16" height="16" fill="currentColor" class="bi bi-trash-fill" viewBox="0 0 16 16"><path d="M2.5 1a1 1 0 0 0-1 1v1a1 1 0 0 0 1 1H3v9a2 2 0 0 0 2 2h6a2 2 0 0 0 2-2V4h.5a1 1 0 0 0 1-1V2a1 1 0 0 0-1-1H10a1 1 0 0 0-1-1H7a1 1 0 0 0-1 1zm3 4a.5.5 0 0 1 .5.5v7a.5.5 0 0 1-1 0v-7a.5.5 0 0 1 .5-.5M8 5a.5.5 0 0 1 .5.5v7a.5.5 0 0 1-1 0v-7A.5.5 0 0 1 8 5m3 .5v7a.5.5 0 0 1-1 0v-7a.5.5 0 0 1 1 0"/></svg></symbol></defs></svg>